<?xml version="1.0" encoding="UTF-8" standalone="no"?><!DOCTYPE svg PUBLIC "-//W3C//DTD SVG 1.1//EN" "http://www.w3.org/Graphics/SVG/1.1/DTD/svg11.dtd"><svg width="100%" height="100%" viewBox="0 0 1688 1688" version="1.1" xmlns="http://www.w3.org/2000/svg" xmlns:xlink="http://www.w3.org/1999/xlink" xml:space="preserve" xmlns:serif="http://www.serif.com/" style="fill-rule:evenodd;clip-rule:evenodd;stroke-linecap:round;stroke-linejoin:round;stroke-miterlimit:1.5;"><g><path d="M1527.03,500.276l-0,707.866c-0,184.735 -149.982,334.716 -334.717,334.716l-669.433,0c-184.735,0 -334.716,-149.981 -334.716,-334.716l-0,-707.866c-0,-184.735 149.981,-334.717 334.716,-334.717l669.433,0c184.735,0 334.717,149.982 334.717,334.717Z" style="fill:none;stroke:#00d9a6;stroke-width:78.13px;"/><path d="M611.006,951.13l0.815,-190.127l345.396,0c76.945,0 141.92,-55.457 141.92,-122.797l0,-17.165c0,-66.02 -64.975,-122.798 -141.92,-122.798l-344.38,0l0.842,-204.662l389.705,-0c206.895,-0 347.106,110.914 347.106,274.644l-0,91.107c-0,71.302 -39.328,145.245 -102.593,195.42l1.71,-0c83.784,47.534 119.691,121.477 119.691,195.419l0,69.982c0,187.497 -143.63,297.09 -347.106,297.09l-413.136,0l2.765,-207.303l362.495,0c78.654,0 143.63,-55.457 143.63,-124.118l-0,-11.883c-0,-67.341 -64.976,-122.798 -143.63,-122.798" style="fill:#00d9a6;"/><path d="M590.039,293.581l-7.388,1123.66c-47.759,0 -131.507,-28.469 -171.141,-63.162c-39.635,-34.693 -66.667,-101.732 -66.667,-144.997l0,-716.525c0,-44.821 33.394,-106.259 74.26,-139.423c40.866,-33.163 117.92,-59.555 170.936,-59.555Z" style="fill:#00d9a6;"/></g></svg>