<?xml version="1.0" encoding="utf-8" ?>	<!-- Generator: Assembly 2.4 - http://assemblyapp.co -->	<svg version="1.1" xmlns="http://www.w3.org/2000/svg" xmlns:xlink="http://www.w3.org/1999/xlink" width="8000.00" height="8000.00" viewBox="0 0 8000.0 8000.0">		<g id="document" transform="scale(1.953125 1.953125) translate(2048.0 2048.0)">			<g>				<defs>					<filter id="Dcw5vL8W" x="0.00%" y="0.00%" width="113.52%" height="113.11%" filterUnits="objectBoundingBox">						<feOffset dx="219.36" dy="207.43" in="SourceAlpha" result="shadowOffsetOuter1" />						<feGaussianBlur stdDeviation="85.69" in="shadowOffsetOuter1" result="shadowBlurOuter1" />						<feFlood flood-color="#000000" flood-opacity="0.27" />						<feComposite in2="shadowBlurOuter1" operator="in" />						<feMerge>							<feMergeNode />							<feMergeNode in="SourceGraphic" />						</feMerge>					</filter>				</defs>				<path d="M109.345,1327.58 L-1315.51,1327.58 L-1315.51,-97.2795 C-1315.51,-872.654 -688.919,-1499.25 86.4559,-1499.25 L1511.31,-1499.25 L1511.31,-74.3902 C1511.31,700.984 884.72,1327.58 109.345,1327.58 Z " fill="none" stroke-width="62.61" stroke="#e60000" stroke-linecap="square" stroke-linejoin="miter" filter="url(#Dcw5vL8W)" />				<path d="M1304.88,73.2703 L1304.88,-1279.05 L338.316,-1279.05 L338.316,-211.777 L-144.968,-211.777 L-144.968,-1279.05 L-1111.54,-1279.05 L-1111.54,73.2703 C-1111.54,73.2998 -1111.54,73.3264 -1111.54,73.3559 C-1111.54,73.3854 -1111.54,73.4119 -1111.54,73.4414 L-1111.54,1137.37 L-144.968,1137.37 L-144.968,358.489 L338.316,358.489 L338.316,1137.37 L1304.88,1137.37 L1304.88,73.4414 C1304.88,73.4119 1304.88,73.3854 1304.88,73.3559 C1304.88,73.3264 1304.88,73.2998 1304.88,73.2703 L1304.88,73.2703 Z " fill="#ffffff" fill-opacity="1.00" stroke-width="62.61" stroke="#bebebe" stroke-linecap="square" stroke-linejoin="miter" />				<g>					<defs>						<filter id="HgegurAi" x="-33.74%" y="-0.71%" width="169.22%" height="124.08%" filterUnits="objectBoundingBox">							<feOffset dx="-31.01" dy="32.31" in="SourceAlpha" result="shadowOffsetOuter1" />							<feGaussianBlur stdDeviation="17.19" in="shadowOffsetOuter1" result="shadowBlurOuter1" />							<feFlood flood-color="#bebebe" flood-opacity="0.43" />							<feComposite in2="shadowBlurOuter1" operator="in" />							<feMerge>								<feMergeNode />								<feMergeNode in="SourceGraphic" />							</feMerge>						</filter>					</defs>					<path d="M-1182.53,-1133.88 L-1182.53,-1111.02 C-1182.53,-1078.84 -1208.5,-1052.87 -1240.68,-1052.87 L-1337.6,-1052.87 L-1337.6,-1014.1 L-1240.68,-1014.1 C-1187.18,-1014.1 -1143.76,-1057.52 -1143.76,-1111.02 L-1143.76,-1211.41 C-1143.76,-1211.41 -1143.76,-1211.41 -1143.76,-1211.41 L-1143.76,-1308.33 L-1182.53,-1308.33 L-1182.53,-1211.41 C-1182.53,-1179.23 -1208.5,-1153.26 -1240.68,-1153.26 C-1272.86,-1153.26 -1298.84,-1179.23 -1298.84,-1211.41 L-1298.84,-1308.33 L-1337.6,-1308.33 L-1337.6,-1211.41 C-1337.6,-1157.91 -1294.18,-1114.49 -1240.68,-1114.49 C-1218.87,-1114.49 -1198.73,-1121.71 -1182.53,-1133.88 L-1182.53,-1133.88 Z " fill="#000000" fill-opacity="1.00" filter="url(#HgegurAi)" />					<defs>						<filter id="sOEB5E2Q" x="-33.74%" y="-0.51%" width="169.22%" height="117.50%" filterUnits="objectBoundingBox">							<feOffset dx="-31.01" dy="32.31" in="SourceAlpha" result="shadowOffsetOuter1" />							<feGaussianBlur stdDeviation="17.19" in="shadowOffsetOuter1" result="shadowBlurOuter1" />							<feFlood flood-color="#bebebe" flood-opacity="0.43" />							<feComposite in2="shadowBlurOuter1" operator="in" />							<feMerge>								<feMergeNode />								<feMergeNode in="SourceGraphic" />							</feMerge>						</filter>					</defs>					<path d="M-1546.47,-1207.94 C-1544.64,-1156.05 -1501.94,-1114.49 -1449.61,-1114.49 C-1396.1,-1114.49 -1352.68,-1157.91 -1352.68,-1211.41 C-1352.68,-1264.91 -1396.1,-1308.33 -1449.61,-1308.33 C-1471.42,-1308.33 -1491.56,-1301.11 -1507.77,-1288.93 L-1507.77,-1519.27 L-1546.53,-1519.27 L-1546.53,-1211.41 C-1546.53,-1211.41 -1546.53,-1211.41 -1546.53,-1211.41 C-1546.53,-1211.41 -1546.53,-1211.41 -1546.53,-1211.41 L-1546.53,-1207.94 L-1546.47,-1207.94 L-1546.47,-1207.94 Z M-1449.61,-1269.56 C-1417.43,-1269.56 -1391.45,-1243.59 -1391.45,-1211.41 C-1391.45,-1179.23 -1417.43,-1153.26 -1449.61,-1153.26 C-1481.78,-1153.26 -1507.76,-1179.23 -1507.76,-1211.41 C-1507.76,-1243.59 -1481.78,-1269.56 -1449.61,-1269.56 Z " fill="#000000" fill-opacity="1.00" filter="url(#sOEB5E2Q)" />				</g>				<defs>					<filter id="UpempT7N" x="-6.56%" y="-3.82%" width="161.01%" height="161.08%" filterUnits="objectBoundingBox">						<feOffset dx="125.62" dy="143.40" in="SourceAlpha" result="shadowOffsetOuter1" />						<feGaussianBlur stdDeviation="82.75" in="shadowOffsetOuter1" result="shadowBlurOuter1" />						<feFlood flood-color="#000000" flood-opacity="0.20" />						<feComposite in2="shadowBlurOuter1" operator="in" />						<feMerge>							<feMergeNode />							<feMergeNode in="SourceGraphic" />						</feMerge>					</filter>				</defs>				<path d="M1242.55,1226.26 L1056.97,1354.96 L1122.38,1139.51 L942.486,1002.99 L1168.6,998.014 L1242.55,784.697 L1316.5,998.014 L1542.62,1002.99 L1362.72,1139.51 L1428.14,1354.96 L1242.55,1226.26 Z " fill="#bebebe" fill-opacity="1.00" stroke-width="7.80" stroke="#000000" stroke-linecap="round" stroke-linejoin="round" filter="url(#UpempT7N)" />			</g>		</g>	</svg>